<?xml version="1.0" ?><svg enable-background="new 0 0 64 64" height="64px" version="1.1" viewBox="0 0 64 64" width="64px" xml:space="preserve" xmlns="http://www.w3.org/2000/svg" xmlns:xlink="http://www.w3.org/1999/xlink"><g id="_x31_-Call"/><g id="_x32_-24_Hours_Call"/><g id="_x33_-Sending_Call"/><g id="_x34_-Incoming_Call"/><g id="_x35_-Talk_On_Phone"/><g id="_x36_-Block_Call"/><g id="_x37_-Hold_Call"><g><path d="M52.1478348,42.6721497l-6.4785156-4.5263672c-0.847168-0.5898438-1.8378906-0.9018555-2.8647461-0.9018555    c-1.6328125,0-3.1655273,0.800293-4.0991211,2.1401367l-1.5039063,2.1552734    c-2.5185547-1.6884766-5.3310566-4.0488281-8.0136738-6.7304688c-2.6816406-2.6826172-5.0419922-5.4951191-6.7304688-8.0136738    l2.1547852-1.5039063c2.2602539-1.574707,2.815918-4.6987305,1.237793-6.965332l-4.5253906-6.4770498    c-1.2749023-1.8232422-3.6826172-2.6230469-5.7143555-1.8710938c-0.5942383,0.2202148-1.1459961,0.4887695-1.6835938,0.8266602    l-0.8945313,0.6298828c-0.2236328,0.1738281-0.4311523,0.3637695-0.6313477,0.5629883    c-1.0913086,1.0922852-1.8657227,2.4731445-2.3022461,4.1049795c-1.8647461,6.9907227,2.7548828,17.5600605,11.4951172,26.3007832    c7.3398438,7.3398438,16.158205,11.8994141,23.0126972,11.9003906c0.0004883,0,0.0009766,0,0.0014648,0    c1.1728516,0,2.2783203-0.1367188,3.2871094-0.4052734c1.6313477-0.4365234,3.012207-1.2109375,4.1054688-2.3037109    c0.1982422-0.1987305,0.3881836-0.40625,0.5908203-0.6689453l0.6303711-0.8999023    c0.3085938-0.4931641,0.5771484-1.0449219,0.7978516-1.6401367    C54.7816238,46.3244934,54.0120926,43.9753723,52.1478348,42.6721497z"/><path d="M43.689827,30.3069134c5.5141602,0,10-4.4858398,10-10s-4.4858398-9.999999-10-9.999999s-10,4.4858398-10,9.999999    S38.1756668,30.3069134,43.689827,30.3069134z M44.689827,17.5427532c0-0.5522461,0.4477539-1,1-1s1,0.4477539,1,1v5.527832    c0,0.5522461-0.4477539,1-1,1s-1-0.4477539-1-1V17.5427532z M40.689827,17.5427532c0-0.5522461,0.4477539-1,1-1s1,0.4477539,1,1    v5.527832c0,0.5522461-0.4477539,1-1,1s-1-0.4477539-1-1V17.5427532z"/></g></g><g id="_x38_-Mute_Call"/><g id="_x39_-Phone_Book"/><g id="_x31_0-Add_Contact"/><g id="_x31_1-Delete_Contact"/><g id="_x31_2-Mail"/><g id="_x31_3-Message_Read"/><g id="_x31_4-Email"/><g id="_x31_5-Send_Mail"/><g id="_x31_6-Important_Mail"/><g id="_x31_7-Mail_Chain"/><g id="_x31_8-Messaging"/><g id="_x31_9-Sending"/><g id="_x32_0-Chat"/><g id="_x32_1-Mail_Attachment"/><g id="_x32_2-Mobile_Link"/><g id="_x32_3-Smartphone"/><g id="_x32_4-Social_Media"/><g id="_x32_5-Support"/><g id="_x32_6-Links"/><g id="_x32_7-Phone"/><g id="_x32_8-Phone-2"/><g id="_x32_9-Map"/><g id="_x33_0-Location"/><g id="_x33_1-Write"/><g id="_x33_2-World"/><g id="_x33_3-Home"/><g id="_x33_4-Calendar"/><g id="_x33_5-Website"/><g id="_x33_6-Info"/><g id="_x33_7-Bull_Horn"/><g id="_x33_8-Profile"/><g id="_x33_9-Quote__x26__Answer"/><g id="_x34_0-Notification"/><g id="_x34_1-Share"/><g id="_x34_2-Time"/></svg>